{"title":"Give Me Pink # 10 DVD","uid":6976399,"size":1975032908,"categoryP":"porn","categoryS":"movies","magnet":"?xt=urn:btih:ee564db0667794d7a227727bc4f9abc20d59a865&amp;dn=Give+Me+Pink+%23+10+DVD&amp;tr=udp%3A%2F%2Ftracker.openbittorrent.com%3A80&amp;tr=udp%3A%2F%2Fopen.demonii.com%3A1337&amp;tr=udp%3A%2F%2Ftracker.coppersurfer.tk%3A6969&amp;tr=udp%3A%2F%2Fexodus.desync.com%3A6969","seeders":0,"leechers":1,"uploader":"tigris1968","files":87,"time":1327270075,"description":"Give Me Pink # 10 DVD\nCruel Media\n\nCategory \tAll Girl, HD - Shot In High Def, Foreign, Gonzo, Toy Play, Masturbation\nDirector \tClara G\nStarring \tSuzie Carina, Tina, Bridget, Ally, Billy Rais\n\n\nPrague Action!\nUltra Sharp Close-Ups! 6 Solo Scenes!\nSmoking Hot Girls From The Czech Republic\n\nProduct Detail\n\nStudio \tCruel Media\nCD Universe Part number \t8667973\nDiscs \t1\nRelease Date \tJan 17, 2012\n\nfrond\n &lt;a href=&quot;\nhttp://bayimg.com/kaMLoaAdB&quot; rel=&quot;nofollow&quot; target=&quot;_NEW&quot;&gt;\nhttp://bayimg.com/kaMLoaAdB&lt;/a&gt;\n\nback\n &lt;a href=&quot;\nhttp://bayimg.com/LaMLfAAdB&quot; rel=&quot;nofollow&quot; target=&quot;_NEW&quot;&gt;\nhttp://bayimg.com/LaMLfAAdB&lt;/a&gt;\n\nscreen\n &lt;a href=&quot;\nhttp://bayimg.com/LAMLMAAdB&quot; rel=&quot;nofollow&quot; target=&quot;_NEW&quot;&gt;\nhttp://bayimg.com/LAMLMAAdB&lt;/a&gt;\n\nGeneral\nComplete name                    : C:\\Downloads\\Give Me Pink # 10 DVD\\dvd\\Give Me Pink # 10 DVD.avi\nFormat                           : AVI\nFormat/Info                      : Audio Video Interleave\nFormat profile                   : OpenDML\nFile size                        : 1.82 GiB\nDuration                         : 3h 14mn\nOverall bit rate                 : 1 340 Kbps\nWriting application              : MEncoder SVN-r30881(20100311-gcc4.3.3)\nWriting library                  : MPlayer\n\nVideo\nID                               : 0\nFormat                           : MPEG-4 Visual\nFormat profile                   : Advanced Simple@L5\nFormat settings, BVOP            : 2\nFormat settings, QPel            : No\nFormat settings, GMC             : No warppoints\nFormat settings, Matrix          : Default (H.263)\nCodec ID                         : XVID\nCodec ID/Hint                    : XviD\nDuration                         : 3h 14mn\nBit rate                         : 33.6 Kbps\nWidth                            : 720 pixels\nHeight                           : 480 pixels\nDisplay aspect ratio             : 3:2\nFrame rate                       : 25.000 fps\nStandard                         : NTSC\nColor space                      : YUV\nChroma subsampling               : 4:2:0\nBit depth                        : 8 bits\nScan type                        : Progressive\nCompression mode                 : Lossy\nBits/(Pixel*Frame)               : 0.004\nStream size                      : 46.6 MiB (3%)\nWriting library                  : XviD 1.2.1 (UTC 2008-12-04)\n\nAudio\nID                               : 1\nFormat                           : MPEG Audio\nCodec ID                         : 55\nCodec ID/Hint                    : MP3\nDuration                         : 3h 14mn\nBit rate                         : 128 Kbps\nChannel(s)                       : 2 channels\nSampling rate                    : 44.1 KHz\nCompression mode                 : Lossy\nStream size                      : 178 MiB (10%)\nAlignment                        : Aligned on interleaves\n\n","torrent":{"xt":"urn:btih:ee564db0667794d7a227727bc4f9abc20d59a865","amp;dn":"Give+Me+Pink+%23+10+DVD","amp;tr":["udp%3A%2F%2Ftracker.openbittorrent.com%3A80","udp%3A%2F%2Fopen.demonii.com%3A1337","udp%3A%2F%2Ftracker.coppersurfer.tk%3A6969","udp%3A%2F%2Fexodus.desync.com%3A6969"],"infoHash":"ee564db0667794d7a227727bc4f9abc20d59a865","infoHashBuffer":{"type":"Buffer","data":[238,86,77,176,102,119,148,215,162,39,114,123,196,249,171,194,13,89,168,101]},"announce":[],"urlList":[]}}